<svg width="25" height="29" viewBox="0 0 25 29" fill="none" xmlns="http://www.w3.org/2000/svg">
<g clip-path="url(#clip0_874_14969)">
<path d="M12.4994 15.7786C10.9389 15.7786 9.41345 15.3159 8.11594 14.4489C6.81844 13.5819 5.80715 12.3497 5.20997 10.908C4.61279 9.46624 4.45654 7.87982 4.76098 6.3493C5.06542 4.81879 5.81687 3.41292 6.92032 2.30948C8.02376 1.20604 9.42963 0.454582 10.9601 0.150144C12.4907 -0.154295 14.0771 0.00195376 15.5188 0.599132C16.9605 1.19631 18.1928 2.2076 19.0597 3.50511C19.9267 4.80262 20.3894 6.32807 20.3894 7.88857C20.3872 9.98044 19.5552 11.986 18.076 13.4651C16.5968 14.9443 14.5913 15.7763 12.4994 15.7786V15.7786ZM12.4994 1.72899C11.2808 1.72899 10.0896 2.09036 9.07638 2.76741C8.06317 3.44445 7.2735 4.40676 6.80723 5.53262C6.34096 6.65849 6.21903 7.89734 6.45687 9.0925C6.69471 10.2877 7.28164 11.3855 8.14342 12.247C9.0052 13.1086 10.1031 13.6953 11.2983 13.9328C12.4936 14.1704 13.7324 14.0482 14.8581 13.5816C15.9839 13.1151 16.946 12.3252 17.6228 11.3118C18.2996 10.2985 18.6607 9.10717 18.6604 7.88857C18.6585 6.25529 18.0088 4.68946 16.8537 3.53469C15.6987 2.37991 14.1327 1.73051 12.4994 1.72899V1.72899Z" fill="#4D4D4D"/>
<path d="M24.1355 28.1455C23.9062 28.1455 23.6863 28.0544 23.5242 27.8922C23.3621 27.7301 23.271 27.5102 23.271 27.2809V26.294C23.2691 24.7715 22.6633 23.312 21.5867 22.2356C20.51 21.1591 19.0503 20.5538 17.5278 20.5522H7.47075C5.94841 20.5538 4.48887 21.1592 3.41241 22.2356C2.33595 23.3121 1.73053 24.7716 1.72901 26.294V27.2809C1.72901 27.5102 1.63793 27.7301 1.4758 27.8922C1.31367 28.0544 1.09378 28.1455 0.864504 28.1455C0.635223 28.1455 0.415333 28.0544 0.253207 27.8922C0.0910814 27.7301 0 27.5102 0 27.2809L0 26.294C0.00228802 24.3133 0.790117 22.4144 2.19066 21.0139C3.5912 19.6134 5.49009 18.8255 7.47075 18.8232H17.5278C19.5086 18.8255 21.4076 19.6133 22.8084 21.0138C24.2092 22.4143 24.9973 24.3132 25 26.294V27.2809C25 27.5102 24.9089 27.7301 24.7468 27.8922C24.5847 28.0544 24.3648 28.1455 24.1355 28.1455V28.1455Z" fill="#4D4D4D"/>
</g>
<defs>
<clipPath id="clip0_874_14969">
<rect width="25" height="28.1453" fill="white"/>
</clipPath>
</defs>
</svg>
