<svg width="25" height="32" viewBox="0 0 25 32" fill="none" xmlns="http://www.w3.org/2000/svg">
<g clip-path="url(#clip0_874_14951)">
<path d="M4.81551 31.6176C3.53879 31.6162 2.31478 31.1091 1.41201 30.2076C0.509238 29.3062 0.00143141 28.0839 0 26.809L0 4.80865C0.00143141 3.53375 0.509238 2.31149 1.41201 1.41C2.31478 0.508512 3.53879 0.00142937 4.81551 0L20.1845 0C21.4612 0.00142937 22.6852 0.508512 23.588 1.41C24.4908 2.31149 24.9986 3.53375 25 4.80865V19.2994C25 19.564 24.8948 19.8177 24.7074 20.0048C24.5201 20.1918 24.266 20.2969 24.0011 20.2969C23.7361 20.2969 23.482 20.1918 23.2947 20.0048C23.1073 19.8177 23.0021 19.564 23.0021 19.2994V4.80865C23.0013 4.06269 22.7042 3.34751 22.1759 2.82004C21.6477 2.29256 20.9315 1.99587 20.1845 1.99505H4.81551C4.06848 1.99587 3.35229 2.29256 2.82406 2.82004C2.29583 3.34751 1.99872 4.06269 1.9979 4.80865V26.809C1.9981 27.5554 2.29495 28.2711 2.82324 28.7991C3.35154 29.3271 4.06808 29.6241 4.81551 29.6249H10.9962C11.2611 29.6249 11.5152 29.73 11.7025 29.9171C11.8899 30.1041 11.9951 30.3579 11.9951 30.6224C11.9951 30.887 11.8899 31.1407 11.7025 31.3278C11.5152 31.5149 11.2611 31.62 10.9962 31.62L4.81551 31.6176Z" fill="#4D4D4D"/>
<path d="M15.7142 27.4819C15.4771 27.475 15.2521 27.3761 15.0868 27.2062C14.9215 27.0363 14.8291 26.8088 14.8291 26.572C14.8291 26.3351 14.9215 26.1076 15.0868 25.9377C15.2521 25.7678 15.4771 25.6689 15.7142 25.662H23.3628C23.4847 25.6585 23.6061 25.6794 23.7197 25.7235C23.8334 25.7676 23.937 25.8341 24.0245 25.919C24.112 26.0038 24.1815 26.1053 24.229 26.2175C24.2765 26.3296 24.301 26.4502 24.301 26.572C24.301 26.6937 24.2765 26.8143 24.229 26.9265C24.1815 27.0386 24.112 27.1401 24.0245 27.225C23.937 27.3098 23.8334 27.3763 23.7197 27.4204C23.6061 27.4646 23.4847 27.4855 23.3628 27.4819H15.7142Z" fill="#4D4D4D"/>
<path d="M19.5408 31.3022C19.2999 31.302 19.0689 31.2066 18.8983 31.0369C18.7276 30.8672 18.6311 30.6369 18.6299 30.3964V22.751C18.6368 22.5143 18.7358 22.2895 18.906 22.1245C19.0761 21.9595 19.304 21.8672 19.5411 21.8672C19.7783 21.8672 20.0062 21.9595 20.1763 22.1245C20.3465 22.2895 20.4455 22.5143 20.4524 22.751V30.3964C20.451 30.637 20.3543 30.8673 20.1835 31.0369C20.0127 31.2066 19.7817 31.302 19.5408 31.3022V31.3022Z" fill="#4D4D4D"/>
<path d="M18.8989 10.8993H5.9651C5.63869 10.8993 5.32565 10.7699 5.09485 10.5394C4.86404 10.3089 4.73438 9.99632 4.73438 9.67038C4.73438 9.34443 4.86404 9.03184 5.09485 8.80136C5.32565 8.57089 5.63869 8.44141 5.9651 8.44141H18.8989C19.2253 8.44141 19.5384 8.57089 19.7692 8.80136C20 9.03184 20.1296 9.34443 20.1296 9.67038C20.1296 9.99632 20 10.3089 19.7692 10.5394C19.5384 10.7699 19.2253 10.8993 18.8989 10.8993V10.8993Z" fill="#4D4D4D"/>
<path d="M18.8989 15.8925H5.9651C5.63869 15.8925 5.32565 15.763 5.09485 15.5326C4.86404 15.3021 4.73438 14.9895 4.73438 14.6635C4.73438 14.3376 4.86404 14.025 5.09485 13.7945C5.32565 13.5641 5.63869 13.4346 5.9651 13.4346H18.8989C19.2253 13.4346 19.5384 13.5641 19.7692 13.7945C20 14.025 20.1296 14.3376 20.1296 14.6635C20.1296 14.9895 20 15.3021 19.7692 15.5326C19.5384 15.763 19.2253 15.8925 18.8989 15.8925V15.8925Z" fill="#4D4D4D"/>
<path d="M14.5068 20.8857H5.9651C5.63869 20.8857 5.32565 20.7562 5.09485 20.5257C4.86404 20.2952 4.73438 19.9826 4.73438 19.6567C4.73438 19.3308 4.86404 19.0182 5.09485 18.7877C5.32565 18.5572 5.63869 18.4277 5.9651 18.4277H14.5068C14.8332 18.4277 15.1462 18.5572 15.377 18.7877C15.6078 19.0182 15.7375 19.3308 15.7375 19.6567C15.7375 19.9826 15.6078 20.2952 15.377 20.5257C15.1462 20.7562 14.8332 20.8857 14.5068 20.8857V20.8857Z" fill="#4D4D4D"/>
</g>
<defs>
<clipPath id="clip0_874_14951">
<rect width="25" height="31.6176" fill="white"/>
</clipPath>
</defs>
</svg>
