<svg width="25" height="24" viewBox="0 0 25 24" fill="none" xmlns="http://www.w3.org/2000/svg">
<g clip-path="url(#clip0_874_14941)">
<path d="M21.2515 1.71606C21.7916 1.71661 22.3093 1.93194 22.6912 2.31479C23.0731 2.69764 23.2878 3.21674 23.2884 3.75818V15.8805C23.2878 16.4218 23.073 16.9409 22.6912 17.3236C22.3093 17.7064 21.7915 17.9215 21.2515 17.9219H12.4545C11.655 17.9213 10.8852 18.2256 10.3012 18.7731L8.12748 20.8076L8.14528 19.6654L8.17267 17.9219H3.74846C3.20854 17.9213 2.69089 17.7061 2.30904 17.3234C1.9272 16.9407 1.71235 16.4218 1.71163 15.8805V3.75818C1.71235 3.2168 1.92718 2.6978 2.309 2.31499C2.69082 1.93217 3.20848 1.71679 3.74846 1.71606H21.2515ZM21.2515 0H3.74846C2.75464 0.00109015 1.80184 0.39739 1.0991 1.10195C0.396362 1.80651 0.00108733 2.76178 0 3.75818V15.8805C0.0012685 16.8767 0.396623 17.8318 1.09934 18.5362C1.80206 19.2407 2.75476 19.6369 3.74846 19.638H6.43571L6.39463 22.1578C6.39047 22.3067 6.41621 22.4548 6.47031 22.5935C6.52442 22.7322 6.60578 22.8585 6.70957 22.9651C6.81613 23.0734 6.94306 23.1596 7.08302 23.2185C7.22298 23.2774 7.3732 23.3079 7.52499 23.3083V23.3083C7.80897 23.307 8.08186 23.1976 8.28837 23.0021L11.4665 20.0278C11.7335 19.7769 12.0858 19.6375 12.4517 19.638H21.2515C22.2452 19.6369 23.1979 19.2407 23.9007 18.5362C24.6034 17.8318 24.9987 16.8767 25 15.8805V3.75818C24.9989 2.76178 24.6036 1.80651 23.9009 1.10195C23.1982 0.39739 22.2454 0.00109015 21.2515 0V0Z" fill="#4D4D4D"/>
<path d="M12.4191 15.1972C12.1053 15.2009 11.8013 15.0876 11.566 14.8794C11.3154 14.6618 11.1881 14.3577 11.1881 13.9768C11.185 13.8156 11.2153 13.6555 11.2771 13.5067C11.3388 13.3578 11.4307 13.2234 11.5468 13.1119C11.6615 12.9981 11.7978 12.9086 11.9476 12.8486C12.0975 12.7886 12.2578 12.7593 12.4191 12.7625C12.5787 12.7605 12.7371 12.7905 12.8849 12.8508C13.0328 12.9111 13.1671 13.0005 13.28 13.1136C13.3929 13.2268 13.482 13.3615 13.5421 13.5097C13.6023 13.6579 13.6322 13.8167 13.6302 13.9768C13.6302 14.3522 13.5049 14.6543 13.2578 14.8746C13.0286 15.0841 12.7292 15.1993 12.4191 15.1972V15.1972ZM12.3451 12.2182C12.2101 12.2211 12.0759 12.1971 11.9502 12.1478C11.8244 12.0984 11.7097 12.0246 11.6126 11.9305C11.4113 11.7377 11.3093 11.4576 11.3093 11.0986C11.2888 10.413 11.539 9.74695 12.0055 9.24524C12.2582 8.976 12.5244 8.71986 12.8032 8.47782C13.0859 8.22933 13.2927 8.03988 13.4193 7.91495C13.5331 7.80103 13.6305 7.67191 13.709 7.53124C13.7794 7.40551 13.816 7.26357 13.8151 7.11938C13.8176 6.97551 13.7889 6.83282 13.7308 6.70123C13.6728 6.56964 13.5868 6.45232 13.4789 6.35745C13.2475 6.14122 12.9538 6.04032 12.5813 6.04032C12.1479 6.04032 11.8282 6.14466 11.6379 6.35058C11.4256 6.57779 11.2408 6.92443 11.0902 7.38022C10.8663 8.12774 10.387 8.28562 10.0248 8.28562C9.87833 8.28823 9.73286 8.26029 9.59768 8.20357C9.4625 8.14686 9.34054 8.06259 9.23955 7.95613C9.14135 7.86301 9.06267 7.75117 9.00812 7.62717C8.95358 7.50318 8.92425 7.36951 8.92188 7.23401C8.92188 6.76862 9.07044 6.29292 9.36484 5.82204C9.65924 5.35115 10.0865 4.96263 10.6417 4.65511C11.197 4.34759 11.8494 4.19727 12.5827 4.19727C13.2632 4.19727 13.874 4.32563 14.3998 4.5796C14.9019 4.81105 15.3308 5.17652 15.6397 5.63601C15.9289 6.0702 16.0828 6.58079 16.082 7.10291C16.0894 7.48735 16.0007 7.86753 15.8238 8.20874C15.6684 8.50278 15.4695 8.77148 15.2337 9.00568C15.018 9.21778 14.6284 9.5761 14.0759 10.071C13.9532 10.1816 13.8364 10.2987 13.7261 10.4218C13.6572 10.4978 13.5974 10.5816 13.5481 10.6716C13.5111 10.7436 13.481 10.819 13.4584 10.8968C13.4351 10.9798 13.3988 11.1309 13.3509 11.3457C13.2461 11.9065 12.8894 12.2182 12.3451 12.2182Z" fill="#4D4D4D"/>
</g>
<defs>
<clipPath id="clip0_874_14941">
<rect width="25" height="23.3083" fill="white"/>
</clipPath>
</defs>
</svg>
