<svg width="27" height="30" viewBox="0 0 27 30" fill="none" xmlns="http://www.w3.org/2000/svg">
<path d="M21.8333 9.33333C21.8333 7.1232 20.9554 5.00358 19.3926 3.44078C17.8298 1.87797 15.7101 1 13.5 1C11.2899 1 9.17025 1.87797 7.60744 3.44078C6.04464 5.00358 5.16667 7.1232 5.16667 9.33333C5.16667 19.0556 1 21.8333 1 21.8333H26C26 21.8333 21.8333 19.0556 21.8333 9.33333Z" stroke="#4D4D4D" stroke-width="2" stroke-linecap="round" stroke-linejoin="round"/>
<path d="M15.9022 27.3892C15.6581 27.8101 15.3076 28.1595 14.8859 28.4024C14.4642 28.6453 13.9861 28.7731 13.4995 28.7731C13.0128 28.7731 12.5347 28.6453 12.113 28.4024C11.6913 28.1595 11.3409 27.8101 11.0967 27.3892" stroke="#4D4D4D" stroke-width="2" stroke-linecap="round" stroke-linejoin="round"/>
</svg>
